<svg version="1.1" xmlns="http://www.w3.org/2000/svg" xmlns:xlink="http://www.w3.org/1999/xlink" width="160.96471" height="107.91934" viewBox="0,0,160.96471,107.91934"><g transform="translate(-159.51766,-126.04034)"><g data-paper-data="{&quot;isPaintingLayer&quot;:true}" fill-rule="nonzero" stroke-linejoin="miter" stroke-miterlimit="10" stroke-dasharray="" stroke-dashoffset="0" style="mix-blend-mode: normal"><path d="M266.31653,172.89049c0,-6.72875 5.45473,-12.18348 12.18348,-12.18348c6.72875,0 12.18348,5.45473 12.18348,12.18348c0,6.72875 -5.45473,12.18348 -12.18348,12.18348c-6.72875,0 -12.18348,-5.45473 -12.18348,-12.18348z" fill="#007cd5" stroke="none" stroke-width="0.5" stroke-linecap="butt"/><path d="M203.31653,163.22382c0,-20.53587 16.64761,-37.18348 37.18348,-37.18348c20.53587,0 37.18348,16.64761 37.18348,37.18348c0,20.53587 -16.64761,37.18348 -37.18348,37.18348c-20.53587,0 -37.18348,-16.64761 -37.18348,-37.18348z" fill="#0094ff" stroke="none" stroke-width="0.5" stroke-linecap="butt"/><path d="M219.51425,152.25571c0,-2.76142 2.23858,-5 5,-5c2.76142,0 5,2.23858 5,5c0,2.76142 -2.23858,5 -5,5c-2.76142,0 -5,-2.23858 -5,-5z" fill="#000000" stroke="none" stroke-width="0.5" stroke-linecap="butt"/><path d="M251.09051,152.03943c0,-2.76142 2.23858,-5 5,-5c2.76142,0 5,2.23858 5,5c0,2.76142 -2.23858,5 -5,5c-2.76142,0 -5,-2.23858 -5,-5z" fill="#000000" stroke="none" stroke-width="0.5" stroke-linecap="butt"/><path d="M254.04854,169.02847c0,0 -6.42319,2.39521 -14.32316,2.33241c-6.82233,-0.05424 -13.57063,-2.91044 -13.57063,-2.91044" fill="none" stroke="#000000" stroke-width="2" stroke-linecap="round"/><path d="M190.64986,152.22382c0,-6.72875 5.45473,-12.18348 12.18348,-12.18348c6.72875,0 12.18348,5.45473 12.18348,12.18348c0,6.72875 -5.45473,12.18348 -12.18348,12.18348c-6.72875,0 -12.18348,-5.45473 -12.18348,-12.18348z" fill="#51b6ff" stroke="none" stroke-width="0.5" stroke-linecap="butt"/><g stroke="none" stroke-width="1"><path d="M159.51766,233.55917v-28.25842h5.46558v28.25842zM163.53438,221.98017v-4.86483h14.22934v4.86483zM163.53438,210.11846v-4.81771h14.91254v4.81771zM182.18932,233.55917v-19.4122h5.30067v19.41221zM184.83965,211.0019c-0.85596,0 -1.56664,-0.28663 -2.13205,-0.85989c-0.55755,-0.57325 -0.83633,-1.29179 -0.83633,-2.1556c0,-0.82455 0.27878,-1.5313 0.83633,-2.12026c0.5654,-0.59681 1.27608,-0.89523 2.13205,-0.89523c0.88737,0 1.6059,0.29841 2.1556,0.89523c0.5497,0.58897 0.82455,1.29572 0.82455,2.12026c0,0.86381 -0.27485,1.58235 -0.82455,2.1556c-0.5497,0.57325 -1.26823,0.85989 -2.1556,0.85989zM192.15955,233.55917v-19.4122h5.26532v19.41221zM197.42487,222.82827l-2.04959,-1.36639c0.24344,-2.38726 0.93841,-4.27194 2.08492,-5.65404c1.15437,-1.3821 2.81917,-2.07315 4.99441,-2.07315c0.93449,0 1.77474,0.15706 2.52076,0.47117c0.75387,0.30626 1.44099,0.80884 2.06136,1.50775l-3.29819,3.76936c-0.29841,-0.32197 -0.65571,-0.56148 -1.07191,-0.71854c-0.40834,-0.15706 -0.88345,-0.23559 -1.42529,-0.23559c-1.12295,0 -2.04174,0.35338 -2.75634,1.06013c-0.70675,0.70675 -1.06013,1.78652 -1.06013,3.23929zM208.88371,233.55917v-19.4122h5.30066v19.41221zM211.53405,211.0019c-0.85596,0 -1.56664,-0.28663 -2.13205,-0.85989c-0.55755,-0.57325 -0.83633,-1.29179 -0.83633,-2.1556c0,-0.82455 0.27878,-1.5313 0.83633,-2.12026c0.5654,-0.59681 1.27608,-0.89523 2.13205,-0.89523c0.88737,0 1.60591,0.29841 2.1556,0.89523c0.5497,0.58897 0.82455,1.29572 0.82455,2.12026c0,0.86381 -0.27485,1.58235 -0.82455,2.1556c-0.5497,0.57325 -1.26823,0.85989 -2.1556,0.85989zM227.0523,233.95967c-1.79045,0 -3.39635,-0.43976 -4.81771,-1.31928c-1.42136,-0.88737 -2.54039,-2.09278 -3.35709,-3.61623c-0.8167,-1.53131 -1.22504,-3.25107 -1.22504,-5.15931c0,-1.92395 0.40834,-3.64764 1.22504,-5.17109c0.8167,-1.53131 1.92787,-2.74064 3.33353,-3.62801c1.40566,-0.88737 3.01941,-1.33105 4.84127,-1.33105c1.39781,0 2.65034,0.2827 3.75759,0.84811c1.1151,0.5654 2.01425,1.35068 2.69745,2.35585c0.6832,1.00517 1.05228,2.13598 1.10725,3.39243v6.91442c-0.05497,1.26431 -0.42013,2.4069 -1.09547,3.42776c-0.66749,1.01301 -1.56271,1.81401 -2.68567,2.40297c-1.12295,0.58897 -2.38334,0.88344 -3.78114,0.88344zM227.93574,229.09483c0.99731,0 1.86112,-0.21988 2.59143,-0.65964c0.73817,-0.43976 1.31535,-1.05621 1.73155,-1.84934c0.4162,-0.79314 0.6243,-1.71192 0.6243,-2.75634c0,-1.02086 -0.2081,-1.92395 -0.6243,-2.70923c-0.4162,-0.79314 -0.99338,-1.40958 -1.73155,-1.84934c-0.73031,-0.44761 -1.57842,-0.67141 -2.54432,-0.67141c-0.99731,0 -1.86505,0.22773 -2.60321,0.68319c-0.73031,0.45547 -1.30357,1.07191 -1.71977,1.84934c-0.4162,0.77743 -0.6243,1.67658 -0.6243,2.69745c0,1.04442 0.2081,1.9632 0.6243,2.75634c0.4162,0.79314 0.99731,1.40958 1.74332,1.84934c0.75387,0.43976 1.59805,0.65964 2.53254,0.65964zM237.8303,233.55917h-5.22997v-5.22999l0.84811,-4.73526l-0.88344,-4.66458v-14.44136h5.26531zM250.60893,233.95967c-1.76689,0 -3.36102,-0.43976 -4.78238,-1.31928c-1.42136,-0.88737 -2.53254,-2.09278 -3.33353,-3.61623c-0.80099,-1.53131 -1.20148,-3.25107 -1.20148,-5.15931c0,-1.92395 0.40049,-3.64764 1.20148,-5.17109c0.80099,-1.53131 1.91217,-2.74064 3.33353,-3.62801c1.42136,-0.88737 3.01549,-1.33105 4.78238,-1.33105c1.39781,0 2.6464,0.2827 3.7458,0.84811c1.0994,0.5654 1.97498,1.35068 2.62677,2.35585c0.65964,1.00517 1.01694,2.13598 1.07191,3.39243v6.99687c-0.05497,1.28787 -0.41227,2.42652 -1.07191,3.41598c-0.65179,0.98945 -1.52737,1.77475 -2.62677,2.35586c-1.0994,0.57325 -2.348,0.85988 -3.7458,0.85988zM251.57483,229.09483c1.47634,0 2.66996,-0.48687 3.58089,-1.46062c0.91093,-0.98161 1.3664,-2.24984 1.3664,-3.8047c0,-1.02086 -0.2081,-1.92395 -0.6243,-2.70923c-0.4162,-0.79314 -0.99338,-1.40958 -1.73155,-1.84934c-0.73031,-0.44761 -1.59412,-0.67141 -2.59143,-0.67141c-0.9659,0 -1.81794,0.2238 -2.5561,0.67141c-0.73031,0.43976 -1.30357,1.05621 -1.71977,1.84934c-0.4162,0.78528 -0.6243,1.68836 -0.6243,2.70923c0,1.04442 0.2081,1.9632 0.6243,2.75634c0.4162,0.79314 0.98945,1.40958 1.71977,1.84934c0.73817,0.43976 1.5902,0.65964 2.5561,0.65964zM256.23941,233.55917v-5.22999l0.8481,-4.73526l-0.8481,-4.66458v-4.78238h5.22998v19.41221zM266.13209,233.55917v-19.4122h5.26533v19.41221zM278.79479,233.55917v-11.46121c0,-1.12295 -0.3573,-1.99854 -1.07191,-2.62677c-0.70675,-0.62823 -1.58235,-0.94234 -2.62678,-0.94234c-0.69891,0 -1.33105,0.14135 -1.89646,0.42405c-0.55755,0.27485 -0.99731,0.6832 -1.31928,1.22504c-0.32196,0.534 -0.48295,1.174 -0.48295,1.92002l-2.04959,-1.00124c0,-1.4999 0.3259,-2.79953 0.97768,-3.89893c0.65964,-1.0994 1.55093,-1.95143 2.67389,-2.5561c1.13081,-0.60467 2.4069,-0.907 3.82826,-0.907c1.33499,0 2.55217,0.30233 3.65157,0.907c1.0994,0.60467 1.97106,1.44885 2.61499,2.53254c0.64393,1.08369 0.9659,2.39119 0.9659,3.92249v12.46245zM291.45748,233.55917v-11.46121c0,-1.12295 -0.3573,-1.99854 -1.07191,-2.62677c-0.70675,-0.62823 -1.58235,-0.94234 -2.62677,-0.94234c-0.66749,0 -1.29179,0.14135 -1.8729,0.42405c-0.57326,0.27485 -1.02087,0.6832 -1.34283,1.22504c-0.32196,0.534 -0.48295,1.174 -0.48295,1.92002l-3.01549,-0.71853c0.10994,-1.55486 0.52614,-2.90163 1.2486,-4.04029c0.72246,-1.13866 1.67265,-2.0221 2.85057,-2.65033c1.17793,-0.63608 2.49328,-0.95412 3.94605,-0.95412c1.44492,0 2.74457,0.30233 3.89893,0.907c1.15436,0.60467 2.06529,1.4724 2.73278,2.60321c0.66749,1.12295 1.00124,2.46187 1.00124,4.01673v12.29754zM310.1166,233.95967c-1.95535,0 -3.71832,-0.44761 -5.28888,-1.34284c-1.57057,-0.90308 -2.81917,-2.12419 -3.7458,-3.66335c-0.91878,-1.53915 -1.37817,-3.25893 -1.37817,-5.15931c0,-1.90824 0.45547,-3.61623 1.3664,-5.12398c0.91093,-1.51559 2.1556,-2.721 3.73402,-3.61623c1.58627,-0.90308 3.34138,-1.35461 5.26533,-1.35461c1.98676,0 3.76151,0.45154 5.32423,1.35461c1.57057,0.89523 2.81131,2.10064 3.72224,3.61623c0.91093,1.50775 1.3664,3.21573 1.3664,5.12398c0,1.90039 -0.45547,3.62016 -1.3664,5.15931c-0.91093,1.53915 -2.15167,2.76027 -3.72224,3.66335c-1.56272,0.89523 -3.32175,1.34284 -5.27711,1.34284zM310.06948,229.0595c0.99731,0 1.87683,-0.21988 2.63855,-0.65964c0.76173,-0.44761 1.35068,-1.06406 1.76689,-1.84934c0.4162,-0.79314 0.6243,-1.70014 0.6243,-2.72101c0,-1.02086 -0.21595,-1.92002 -0.64785,-2.69745c-0.42406,-0.77743 -1.01302,-1.38602 -1.76689,-1.82578c-0.74602,-0.43976 -1.61768,-0.65964 -2.615,-0.65964c-0.9659,0 -1.82578,0.21988 -2.57966,0.65964c-0.74602,0.43976 -1.33498,1.04835 -1.76689,1.82578c-0.42406,0.77743 -0.63608,1.67658 -0.63608,2.69745c0,1.02086 0.21202,1.92787 0.63608,2.72101c0.4319,0.78528 1.02087,1.40173 1.76689,1.84934c0.75387,0.43976 1.61376,0.65964 2.57966,0.65964z" fill="#0094ff" stroke-linecap="square"/><path d="M266.13209,214.14697h5.26533v1.67618c0.46782,-0.46447 1.00181,-0.85829 1.60197,-1.18145c1.13081,-0.60467 2.4069,-0.907 3.82826,-0.907c1.33499,0 2.55217,0.30233 3.65157,0.907c0.92289,0.50759 1.6853,1.18395 2.28723,2.0291c0.64855,-0.82193 1.441,-1.48259 2.37735,-1.98198c1.17793,-0.63608 2.49328,-0.95412 3.94605,-0.95412c1.44492,0 2.74457,0.30233 3.89893,0.907c1.15436,0.60467 2.06529,1.4724 2.73278,2.60321c0.35206,0.5923 0.61129,1.24467 0.77765,1.95712c-2.15053,0.00123 -4.30107,0.00186 -6.4516,0.00168c-0.64202,-0.44991 -1.40497,-0.67485 -2.28881,-0.67485c-0.66749,0 -1.29179,0.14135 -1.8729,0.42405c-0.15328,0.07349 -0.29757,0.15652 -0.43288,0.2491c-2.69516,-0.00181 -5.39031,-0.00514 -8.08547,-0.0104c-0.6384,-0.44183 -1.39556,-0.66275 -2.27145,-0.66275c-0.69891,0 -1.33105,0.14135 -1.89646,0.42405c-0.13759,0.06783 -0.26801,0.14379 -0.39126,0.22788c-1.44317,-0.00406 -2.88635,-0.00874 -4.32952,-0.01411c-0.78215,-0.00291 -1.56441,-0.00861 -2.34677,-0.017z" fill="#2ea8ff" stroke-linecap="butt"/><path d="M159.51766,205.30075h5.46558v4.81771h-1.44886v-4.81771h14.91254v4.81771h-13.46368v1.70399c-1.35846,0.02506 -2.72316,0.07865 -4.09627,0.16414c-0.44493,0.0277 -0.90275,0.043 -1.3693,0.05285z" fill="#2ea8ff" stroke-linecap="butt"/><path d="M222.21103,215.06575c1.40566,-0.88737 3.01941,-1.33105 4.84127,-1.33105c1.39781,0 2.65034,0.2827 3.75759,0.84811c0.66089,0.3351 1.24593,0.74744 1.75511,1.23701v-11.33184h5.26531v13.35745c-5.74514,-0.43315 -11.4872,-0.94764 -17.22103,-1.50472c0.48293,-0.48074 1.01685,-0.90572 1.60175,-1.27496z" fill="#2ea8ff" stroke-linecap="butt"/><path d="M245.82655,215.06575c1.42136,-0.88737 3.01549,-1.33105 4.78238,-1.33105c1.39781,0 2.6464,0.2827 3.7458,0.84811c0.72576,0.37324 1.35399,0.84232 1.88468,1.40721v-1.84305h5.22998v4.92163c-2.82473,-0.06748 -5.65042,-0.16747 -8.47647,-0.29539c-0.43816,-0.11578 -0.91085,-0.17367 -1.41808,-0.17367c-0.29909,0 -0.58727,0.02146 -0.86453,0.06438c-2.64659,-0.13354 -5.29335,-0.29048 -7.93977,-0.46702c0.77338,-1.29833 1.79205,-2.34203 3.05602,-3.13114z" fill="#2ea8ff" stroke-linecap="butt"/><path d="M301.07015,218.67019c0.91093,-1.51559 2.1556,-2.721 3.73402,-3.61623c1.58627,-0.90308 3.34138,-1.35461 5.26533,-1.35461c1.98676,0 3.76151,0.45154 5.32423,1.35461c1.57057,0.89523 2.81131,2.10064 3.72224,3.61623c0.10037,0.16613 0.19521,0.3347 0.28452,0.50569c-2.31181,0.00299 -4.62362,0.00617 -6.93543,0.00927c-0.69596,-0.359 -1.49447,-0.53851 -2.39558,-0.53851c-0.87772,0 -1.66789,0.18157 -2.37054,0.5447c-2.30843,0.00286 -4.61685,0.00545 -6.92528,0.00752c0.0928,-0.17888 0.19162,-0.3551 0.29649,-0.52867z" fill="#2ea8ff" stroke-linecap="butt"/><path d="M211.53405,211.0019c-0.85596,0 -1.56664,-0.28663 -2.13205,-0.85989c-0.55755,-0.57325 -0.83633,-1.29179 -0.83633,-2.1556c0,-0.82455 0.27878,-1.5313 0.83633,-2.12026c0.5654,-0.59681 1.27608,-0.89523 2.13205,-0.89523c0.88737,0 1.60591,0.29841 2.1556,0.89523c0.5497,0.58897 0.82455,1.29572 0.82455,2.12026c0,0.86381 -0.27485,1.58235 -0.82455,2.1556c-0.5497,0.57325 -1.26823,0.85989 -2.1556,0.85989z" fill="#2ea8ff" stroke-linecap="butt"/><path d="M184.83965,211.0019c-0.85596,0 -1.56664,-0.28663 -2.13205,-0.85989c-0.55755,-0.57325 -0.83633,-1.29179 -0.83633,-2.1556c0,-0.82455 0.27878,-1.5313 0.83633,-2.12026c0.5654,-0.59681 1.27608,-0.89523 2.13205,-0.89523c0.88737,0 1.6059,0.29841 2.1556,0.89523c0.5497,0.58897 0.82455,1.29572 0.82455,2.12026c0,0.86381 -0.27485,1.58235 -0.82455,2.1556c-0.5497,0.57325 -1.26823,0.85989 -2.1556,0.85989z" fill="#2ea8ff" stroke-linecap="butt"/><path d="" fill="#2ea8ff" stroke-linecap="butt"/><path d="M208.88371,214.14697h5.30066v1.55334c-1.76791,-0.18013 -3.53484,-0.36293 -5.30066,-0.54728z" fill="#2ea8ff" stroke-linecap="butt"/><path d="M202.45461,213.73469c0.93449,0 1.77474,0.15706 2.52076,0.47117c0.4023,0.16343 0.78558,0.38277 1.14986,0.65802c-0.9064,-0.09536 -1.81247,-0.19096 -2.71821,-0.28665c-1.27877,-0.13511 -2.55818,-0.23698 -3.83811,-0.32189c0.83371,-0.34709 1.79561,-0.52065 2.8857,-0.52065z" fill="#2ea8ff" stroke-linecap="butt"/><path d="" fill="#2ea8ff" stroke-linecap="butt"/><path d="M227.0523,233.95967c-1.79045,0 -3.39635,-0.43976 -4.81771,-1.31928c-1.42136,-0.88737 -2.54039,-2.09278 -3.35709,-3.61623c-0.09462,-0.1774 -0.18375,-0.35734 -0.26741,-0.53981c2.5007,0.18953 5.02754,0.26812 7.56364,0.31245c0.54653,0.19869 1.13386,0.29803 1.762,0.29803h0.00001c0.61604,0 1.18113,-0.0839 1.69529,-0.25169c2.73827,0.03126 5.47841,0.06315 8.19926,0.19161v4.52442h-5.22997v-1.76364c-0.50788,0.50239 -1.09684,0.92929 -1.76688,1.28071c-1.12295,0.58897 -2.38334,0.88344 -3.78114,0.88344z" fill="#008ff6" stroke-linecap="butt"/><path d="M310.1166,233.95967c-1.95535,0 -3.71832,-0.44761 -5.28888,-1.34284c-1.57057,-0.90308 -2.81917,-2.12419 -3.7458,-3.66335c-0.11813,-0.1979 -0.22868,-0.39879 -0.33162,-0.60266c2.03661,-0.18284 4.07711,-0.30343 6.11991,-0.3915c0.19285,0.16156 0.39938,0.3084 0.61961,0.44054c0.75387,0.43976 1.61376,0.65964 2.57966,0.65964c0.99731,0 1.87683,-0.21988 2.63855,-0.65964c0.31923,-0.18759 0.60811,-0.40483 0.86666,-0.65173c2.07442,-0.05332 4.14947,-0.10666 6.2235,-0.19106c-0.18847,0.48091 -0.41587,0.94638 -0.68222,1.39641c-0.91093,1.53915 -2.15167,2.76027 -3.72224,3.66335c-1.56272,0.89523 -3.32175,1.34284 -5.27711,1.34284z" fill="#008ff6" stroke-linecap="butt"/><path d="M159.51766,233.55917v-8.21469c1.83383,0.21119 3.66534,0.39289 5.46558,0.58935v7.62534z" fill="#008ff6" stroke-linecap="butt"/><path d="M250.60893,233.95967c-1.76689,0 -3.36102,-0.43976 -4.78238,-1.31928c-1.30555,-0.81507 -2.34941,-1.89846 -3.13156,-3.25018c0.42663,0.04418 0.85244,0.09224 1.27738,0.14455c5.63619,0.69385 11.5194,1.08497 17.49702,1.21512v2.80929h-5.22998v-1.87716c-0.5307,0.56158 -1.15892,1.03418 -1.88468,1.41779c-1.0994,0.57325 -2.348,0.85988 -3.7458,0.85988z" fill="#008ff6" stroke-linecap="butt"/><path d="M182.18932,233.55917v-6.20395c1.76572,0.06778 3.53266,0.11501 5.30067,0.14588v6.05808z" fill="#008ff6" stroke-linecap="butt"/><path d="M192.15955,233.55917v-6.0118c1.75421,0.00521 3.50937,-0.00206 5.26532,-0.01779v6.0296z" fill="#008ff6" stroke-linecap="butt"/><path d="M208.88371,233.55917v-6.18781c1.7659,0.24784 3.53279,0.47746 5.30066,0.67899v5.50884z" fill="#008ff6" stroke-linecap="butt"/><path d="M296.7228,233.55917h-5.26532v-4.14227c1.77109,-0.18842 3.5276,-0.39428 5.26532,-0.61642z" fill="#008ff6" stroke-linecap="butt"/><path d="M284.06011,233.55917h-5.26532v-3.1182c1.76083,-0.09716 3.51721,-0.21323 5.26532,-0.34717z" fill="#008ff6" stroke-linecap="butt"/><path d="M266.13209,233.55917v-2.75996c1.75171,-0.00066 3.50808,-0.02254 5.26533,-0.06459v2.82456z" fill="#008ff6" stroke-linecap="butt"/></g></g></g></svg>